<svg id="visual" viewBox="0 0 900 600" width="900" height="600" xmlns="http://www.w3.org/2000/svg" xmlns:xlink="http://www.w3.org/1999/xlink" version="1.1"><rect x="0" y="0" width="900" height="600" fill="#000000"></rect><path d="M539 0L580 0L580 60L568 60L568 120L468 120L468 180L422 180L422 240L534 240L534 300L530 300L530 360L443 360L443 420L496 420L496 480L507 480L507 540L434 540L434 600L0 600L0 540L0 540L0 480L0 480L0 420L0 420L0 360L0 360L0 300L0 300L0 240L0 240L0 180L0 180L0 120L0 120L0 60L0 60L0 0L0 0Z" fill="#003227"></path><path d="M338 0L384 0L384 60L273 60L273 120L295 120L295 180L331 180L331 240L367 240L367 300L343 300L343 360L271 360L271 420L344 420L344 480L349 480L349 540L393 540L393 600L0 600L0 540L0 540L0 480L0 480L0 420L0 420L0 360L0 360L0 300L0 300L0 240L0 240L0 180L0 180L0 120L0 120L0 60L0 60L0 0L0 0Z" fill="#004435"></path><path d="M198 0L161 0L161 60L223 60L223 120L184 120L184 180L186 180L186 240L227 240L227 300L238 300L238 360L203 360L203 420L146 420L146 480L150 480L150 540L185 540L185 600L0 600L0 540L0 540L0 480L0 480L0 420L0 420L0 360L0 360L0 300L0 300L0 240L0 240L0 180L0 180L0 120L0 120L0 60L0 60L0 0L0 0Z" fill="#005744"></path></svg>